PathFileType	4	(X/Y/Z)	..\data\2015043\dynamic\2015043_C4_04.trc
DataRate	CameraRate	NumFrames	NumMarkers	Units	OrigDataRate	OrigDataStartFrame	OrigNumFrames
100.000000	100.000000	4	52	mm	100.000000	174	232
Frame#	Time	L_IAS			L_IPS			R_IPS			R_IAS			L_FTC			L_FLE			L_FME			L_FAX			L_TTC			L_FAL			L_TAM			L_FCC			L_FM1			L_FM2			L_FM5			R_FTC			R_FLE			R_FME			R_FAX			R_TTC			R_FAL			R_TAM			R_FCC			R_FM1			R_FM2			R_FM5			CV7			TV10			SXS			SJN			L_SIA			L_SRS			L_SAA			L_SAE			L_HLE			L_HME			L_UOA			L_RSP			L_UHE			L_HM2			L_HM5			R_SIA			R_SRS			R_SAA			R_SAE			R_HLE			R_HME			R_UOA			R_RSP			R_UHE			R_HM2			R_HM5			
		X1	Y1	Z1	X2	Y2	Z2	X3	Y3	Z3	X4	Y4	Z4	X5	Y5	Z5	X6	Y6	Z6	X7	Y7	Z7	X8	Y8	Z8	X9	Y9	Z9	X10	Y10	Z10	X11	Y11	Z11	X12	Y12	Z12	X13	Y13	Z13	X14	Y14	Z14	X15	Y15	Z15	X16	Y16	Z16	X17	Y17	Z17	X18	Y18	Z18	X19	Y19	Z19	X20	Y20	Z20	X21	Y21	Z21	X22	Y22	Z22	X23	Y23	Z23	X24	Y24	Z24	X25	Y25	Z25	X26	Y26	Z26	X27	Y27	Z27	X28	Y28	Z28	X29	Y29	Z29	X30	Y30	Z30	X31	Y31	Z31	X32	Y32	Z32	X33	Y33	Z33	X34	Y34	Z34	X35	Y35	Z35	X36	Y36	Z36	X37	Y37	Z37	X38	Y38	Z38	X39	Y39	Z39	X40	Y40	Z40	X41	Y41	Z41	X42	Y42	Z42	X43	Y43	Z43	X44	Y44	Z44	X45	Y45	Z45	X46	Y46	Z46	X47	Y47	Z47	X48	Y48	Z48	X49	Y49	Z49	X50	Y50	Z50	X51	Y51	Z51	X52	Y52	Z52	

175	1.74	148.5763549804688	996.4924926757815	147.214584350586	-36.9092826843262	1010.084777832031	196.0872344970704	-46.39384460449223	1011.532409667969	293.3068847656251	117.6614151000976	991.3864746093752	389.5704956054689	79.10117340087891	903.6468505859377	79.6533126831055	190.094482421875	492.2515869140626	118.3783493041993	177.290283203125	484.3840332031251	235.8035430908204	186.3559722900391	419.9847717285157	113.0903549194337	239.1854400634766	415.5208740234376	175.8033142089844	174.8226776123047	76.56170654296876	167.760238647461	200.8487854003907	88.55328369140626	259.0742187500001	125.7779235839844	24.90610313415528	209.4458618164063	328.5277709960938	16.72325325012207	246.3201599121095	333.4163513183594	33.01631546020509	184.4789123535157	282.4040527343751	19.18280982971192	132.0686798095704	0.9892847537993873	900.4834594726565	419.4326782226564	-33.76141357421881	487.2906799316407	414.3362731933595	0.9956998229026437	466.3721618652345	294.0121459960938	-74.35357666015632	435.5716247558595	419.6659240722657	-14.85364532470708	385.3164672851564	373.0343933105469	-305.699676513672	172.9643249511719	368.4690551757812	-254.046844482422	161.836166381836	287.7654418945312	-361.5282592773439	161.705078125	309.2039489746094	-214.6739959716798	34.44281005859376	292.8932800292969	-215.1664428710939	39.78923416137696	350.9267272949219	-269.0340576171876	48.19565582275392	398.9163818359376	-3.583133935928375	1507.674682617188	238.5321502685547	-59.21768188476567	1279.27490234375	245.3285217285157	173.2473297119141	1283.179931640625	258.8374938964844	116.9573440551758	1434.523071289063	249.8912963867188	-83.40553283691409	1300.465454101563	155.6357727050782	-54.75811767578129	1427.629516601563	149.2700653076172	1.054792165756218	1431.221069335938	62.52635192871095	42.40968322753906	1433.1279296875	41.39583206176759	4.883109092712406	1100.917724609375	-24.32803535461426	-29.51510429382326	1091.433471679688	57.47663879394532	-36.29980850219727	1072.274169921875	-0.05953088402748554	109.4432525634766	854.3438720703127	39.12854385375979	77.59671783447267	844.684753417969	-29.90239334106445	136.31494140625	764.9425659179689	46.44872665405276	60.20777893066408	773.634460449219	-25.00395584106445	-90.85241699218756	1315.482788085938	331.8546752929688	-64.15493774414068	1436.566772460938	325.3174133300782	-28.75044631958014	1445.681030273438	423.5508422851564	2.958686113357488	1443.6376953125	459.614959716797	-2.106932878494328	1112.4794921875	527.8807373046876	-28.68794441223151	1100.787719726563	460.7974853515626	-31.82879638671882	1076.723022460938	495.6728820800782	170.0786437988281	898.7026367187502	494.6809082031251	102.1888351440429	874.8297119140627	534.3075561523439	214.1641540527344	821.080993652344	496.6222229003907	119.9490661621093	803.098327636719	537.3310546875001	
176	1.75	157.0707702636719	996.9530029296877	145.9026641845704	-28.55863571166995	1010.841918945313	194.1143493652344	-38.42035293579106	1012.193603515625	291.3032836914063	125.2813110351562	992.0593261718752	388.0189819335939	87.55144500732422	904.199401855469	78.11701965332034	195.5587005615235	492.0872802734376	118.061637878418	182.3983612060547	484.5381469726564	235.4143218994141	190.980209350586	419.7485961914064	112.8415985107422	243.5155792236328	414.7287597656251	175.7585144042969	175.0420379638672	76.56312561035158	167.9910736083985	200.8726348876953	88.29288482666017	259.3180541992188	125.6852645874023	24.84088516235352	209.4448852539063	328.4837646484375	16.2104606628418	246.6116027832032	333.5519104003907	32.87077713012696	184.9053497314454	282.4047546386719	19.30520057678223	132.2225952148438	8.783857345581005	901.017272949219	417.7593383789064	-19.25688362121587	486.936981201172	415.7313842773439	17.287971496582	464.8467102050782	296.1509399414063	-60.15211486816413	436.3930664062501	421.4527587890626	-0.7467336654663548	384.4711914062501	375.7803649902344	-296.9106750488282	179.3423614501953	369.2842407226562	-244.8281250000001	166.4175720214844	289.3749694824219	-352.5576171875001	170.77294921875	309.3960876464844	-212.4778594970704	37.03475570678712	293.1406250000001	-212.9746704101564	41.68101501464844	350.8811340332032	-266.0230102539064	52.68065643310548	398.9962158203126	4.191747188568087	1508.25732421875	236.3496856689454	-51.06316375732426	1279.712036132813	243.0929870605469	181.3897552490234	1284.126098632813	257.5689086914063	124.8270797729492	1435.375732421875	248.2182769775391	-74.78459930419925	1300.755249023438	153.0999145507813	-46.39556121826175	1427.951782226563	146.9273986816407	9.843266487121577	1431.76953125	60.41981506347658	51.08935928344727	1433.659790039063	39.39110565185548	15.13099765777589	1101.328125	-26.54802322387696	-19.60533142089845	1091.72509765625	55.08139038085939	-26.04132461547852	1072.509643554688	-2.494604110717777	120.5028762817383	855.2254638671877	37.51797866821291	89.14241027832033	845.4859619140627	-31.64049911499023	147.6172637939453	765.8555908203126	45.00849914550784	71.90456390380861	774.265808105469	-26.79586982727051	-83.05529022216803	1315.966796875	329.3927917480469	-56.66054153442388	1437.109985351563	322.9184875488282	-21.70460128784185	1446.411376953125	421.2258300781251	9.891015052795355	1444.51904296875	457.4614868164064	4.536930561065611	1113.304931640625	525.2495117187501	-21.45325469970709	1101.697631835938	457.8891601562501	-24.88498115539558	1077.5830078125	492.6973571777345	176.9115753173828	899.387390136719	493.0580444335939	108.7465896606445	875.5933837890627	532.2899169921876	220.9385375976562	821.7415771484377	495.2172241210939	126.4895553588867	803.7837524414065	535.3126831054689	
177	1.76	165.3385162353516	997.2995605468752	144.6085052490235	-20.46523475646975	1011.471618652344	192.2259063720704	-30.67560768127446	1012.713134765625	289.3866271972657	132.7254638671875	992.662536621094	386.5220031738282	95.69325256347656	904.6166992187502	76.63607025146487	200.8256988525391	491.8417968750001	117.7147827148438	187.4265289306641	484.6212463378907	235.022918701172	195.4360504150391	419.4497985839845	112.5716552734376	247.7500305175782	413.9102478027345	175.6403961181641	175.2338104248047	76.55513000488283	168.1873626708985	200.92236328125	88.05049133300783	259.5288391113282	125.589485168457	24.78581809997559	209.4518585205079	328.4472045898438	15.82670497894287	246.8433990478516	333.6543273925782	32.73852920532227	185.2482147216797	282.4073486328126	19.37120437622071	132.3630676269532	16.44300079345699	901.4199218750002	416.1465759277345	-4.442448616027884	486.5464477539064	417.1829833984376	33.82415771484372	463.4362792968751	298.3288574218751	-45.57041931152349	437.1908264160157	423.2668762207032	13.67516803741451	383.6712341308594	378.4659423828126	-287.5824279785157	185.9834442138672	369.8748474121094	-235.2004699707032	171.2463684082032	290.7341918945312	-342.9886779785157	179.9729309082032	309.3722534179688	-209.5788726806641	40.14320755004884	293.6972656250001	-210.1857147216798	44.10344696044923	351.0615234375001	-262.469451904297	57.9146194458008	399.1524047851563	11.93119716644284	1508.752319335938	234.1914672851563	-43.04740524291996	1280.1005859375	240.8912811279297	189.3963928222656	1284.914428710938	256.3561706542969	132.6336669921875	1436.098754882813	246.6089172363282	-66.25428771972659	1300.98583984375	150.5570068359375	-38.07355117797854	1428.218383789063	144.597640991211	18.64154815673828	1432.225952148438	58.34137344360353	59.76110839843751	1434.070190429688	37.4240074157715	25.49843788146974	1101.633666992188	-28.8350944519043	-9.605534553527841	1091.858642578125	52.5824432373047	-15.64260864257813	1072.60009765625	-5.029474735260012	131.8950805664063	856.1050415039065	35.88231658935549	101.0177764892578	846.2302246093752	-33.39212799072265	159.4647521972657	766.8527221679689	43.5052185058594	84.08322143554689	774.8266601562502	-28.61946296691894	-75.39784240722662	1316.379638671875	326.9273071289063	-49.25381851196295	1437.580200195313	320.5287780761719	-14.77557468414312	1447.031005859375	418.925018310547	16.69653320312495	1445.271484375	455.3401184082032	11.04181194305414	1113.998901367188	522.7267456054689	-14.32853698730475	1102.453735351563	455.0890197753907	-18.01991653442389	1078.294921875	489.8365783691407	183.7158660888672	900.0244140625002	491.5034179687501	115.2816314697265	876.2760009765627	530.3629760742189	227.7356414794922	822.3884887695315	493.8971557617189	133.0725860595703	804.3890380859377	533.3679809570314	
178	1.77	173.3686981201172	997.5457763671877	143.3256072998047	-12.62995433807376	1011.977478027344	190.4449157714844	-23.14373016357426	1013.097595214844	287.5824584960938	140.0280303955078	993.2095336914065	385.0767211914064	103.5155487060547	904.905944824219	75.21726989746097	205.9098510742188	491.5256652832032	117.341178894043	192.3863220214844	484.6424865722657	234.6276092529298	199.7421417236329	419.0967407226564	112.2861557006837	251.8996734619141	413.0744018554689	175.4509582519532	175.4155426025391	76.53920745849611	168.3431854248047	201.0147705078125	87.83351135253908	259.7048034667969	125.5048751831055	24.74917221069337	209.4605865478516	328.4263916015625	15.55675792694092	247.0133666992188	333.7387084960938	32.61304092407227	185.5035095214844	282.4174804687501	19.37840461730957	132.4686126708985	24.00491714477535	901.7024536132815	414.6205444335939	10.60172176361079	486.1781616210939	418.664276123047	50.4888114929199	462.2174682617189	300.4972534179688	-30.69214248657233	437.9945068359376	425.0614624023439	28.34015655517574	382.9739990234376	381.0517272949219	-277.7399902343751	192.8498992919922	370.1900939941406	-225.1610260009766	176.2846374511719	291.8017883300782	-332.8288574218751	189.1725311279297	309.0680847167969	-205.8364257812501	43.70808792114259	294.6412658691407	-206.6653747558595	47.06312942504884	351.5554809570313	-258.2576599121095	63.8867645263672	399.4192199707032	19.6330986022949	1509.169921875	232.061996459961	-35.17670059204105	1280.45068359375	238.7350006103516	197.2619781494141	1285.5517578125	255.1943511962891	140.3724212646484	1436.6982421875	245.0648345947266	-57.82743072509769	1301.17041015625	148.0192108154297	-29.80033111572268	1428.44091796875	142.2872314453125	27.43610954284668	1432.594482421875	56.29421234130861	68.42556762695314	1434.368896484375	35.50148773193361	35.9875831604004	1101.83984375	-31.17247009277344	0.4860002398490846	1091.838256835938	49.99290084838869	-5.099660396575928	1072.553833007813	-7.647664546966555	143.605941772461	856.9810791015627	34.23054122924807	113.1986694335938	846.9168090820315	-35.14926528930663	171.8354187011719	767.9338989257814	41.94059371948245	96.71462249755862	775.321228027344	-30.46794891357422	-67.88082885742193	1316.729614257813	324.4691467285157	-41.93499374389653	1437.986450195313	318.1552429199219	-7.959161758422904	1447.548828125	416.6544494628907	23.37757873535151	1445.9033203125	453.254852294922	17.41175460815424	1114.56787109375	520.3125000000001	-7.315463542938289	1103.064086914063	452.400604248047	-11.23671627044684	1078.867919921875	487.0944213867189	190.4799346923828	900.6130981445315	490.0182189941407	121.7815322875976	876.8790283203127	528.5291137695314	234.5411071777344	823.0200195312502	492.6660766601564	139.6819763183593	804.9183349609377	531.5059204101564	
